# xmcd CD database file
#
# Track frame offsets:
#	150
#	24577
#	47050
#
# Disc length: 942 seconds
#
# Revision: 1
# Processed by: cddbd v1.5.1PL2 Copyright (c) Steve Scherf et al.
# Submitted via: CDex 1.51
#
DISCID=1d03ac03
DTITLE=Breath Mark - 防波堤の空
DYEAR=2001
DGENRE=Rock
TTITLE0=防波堤の空
TTITLE1=るりいろ
TTITLE2=Blue Flags (Tokyo Black Star Dub)
EXTD=YEAR: 2001
EXTT0=
EXTT1=
EXTT2=
PLAYORDER=
